<svg xmlns="http://www.w3.org/2000/svg" xmlns:svgjs="http://svgjs.com/svgjs" xmlns:xlink="http://www.w3.org/1999/xlink" width="288" height="288"><svg xmlns="http://www.w3.org/2000/svg" width="288" height="288" viewBox="0 0 144.083 144"><path fill="#f5f1f5" d="M72.04 14.166c-31.939 0-57.833 25.894-57.833 57.833 0 31.94 25.893 57.835 57.833 57.835 31.941 0 57.836-25.895 57.836-57.835-.001-31.939-25.895-57.833-57.836-57.833zM48.042 40.25c3.934 0 7.125 2.91 7.125 6.5s-3.191 6.5-7.125 6.5c-3.936 0-7.125-2.91-7.125-6.5s3.189-6.5 7.125-6.5zm7.179 55.595H41.143V59.11h14.078v36.735zm47.838 0H88.913v-20.2c0-2.306-.428-3.938-1.281-4.896-.854-.956-2.053-1.436-3.596-1.436-1.707 0-3.092.646-4.152 1.938-1.061 1.292-1.59 3.609-1.59 6.953v17.641H64.215V59.11h13.109v5.983c1.959-2.443 3.943-4.19 5.949-5.24 2.006-1.049 4.449-1.573 7.332-1.573 3.898 0 6.947 1.158 9.15 3.476 2.201 2.317 3.303 5.897 3.303 10.74v23.349z" class="color000 svgShape"/></svg></svg>