<svg xmlns="http://www.w3.org/2000/svg" viewBox="0 0 32 32"><path d="M1 2v11.509a1 1 0 0 0 1 1h11.509a1 1 0 0 0 1-1V2a1 1 0 0 0-1-1H2a1 1 0 0 0-1 1zm2 1h9.509v9.509H3V3zm27-2H18.491a1 1 0 0 0-1 1v11.509a1 1 0 0 0 1 1H30a1 1 0 0 0 1-1V2a1 1 0 0 0-1-1zm-1 11.509h-9.509V3H29v9.509zM14.509 30V18.491a1 1 0 0 0-1-1H2a1 1 0 0 0-1 1V30a1 1 0 0 0 1 1h11.509a1 1 0 0 0 1-1zm-2-1H3v-9.509h9.509V29zM30 17.491H18.491a1 1 0 0 0-1 1V30a1 1 0 0 0 1 1H30a1 1 0 0 0 1-1V18.491a1 1 0 0 0-1-1zM29 29h-9.509v-9.509H29V29z"/></svg>