<svg xmlns="http://www.w3.org/2000/svg" enable-background="new 0 0 24 24" viewBox="0 0 24 24"><path d="M19.62,18.94l-5.31-9.43l5.44,9.7C19.71,19.12,19.67,19.03,19.62,18.94z"/><polygon points="19.615 18.784 19.616 18.786 19.616 18.786"/><polygon points="19.853 19.408 19.852 19.401 19.853 19.411 19.854 19.415"/><polygon points="19.624 18.8 19.616 18.786 19.619 18.792"/><path d="M19.76,19.24c0.04,0.11,0.08,0.22,0.1,0.34h0.09L19.76,19.24z M7.17,19.58v-0.02c0.04-0.22,0.11-0.42,0.21-0.6l5.18-9.21L7,19.58H7.17z"/><path fill="#41B883" d="M13.5,8.08l-0.81,1.43L9.93,4.6L1.5,19.58H7l-0.01,0.01C6.63,20.22,7.09,21,7.81,21H1.4c-0.75,0-1.09-0.33-1.25-0.61c-0.349-0.609,0.01-1.3,0.08-1.429L8.77,3.79C9.14,3.14,9.59,3,9.91,3c0.699,0,1.11,0.66,1.18,0.78L13.5,8.08L13.5,8.08z"/><path fill="#39A072" d="M9.91,3C9.59,3,9.14,3.14,8.77,3.79L0.23,18.96c-0.07,0.13-0.43,0.82-0.08,1.429C0.31,20.67,0.65,21,1.4,21h6.41c-0.72,0-1.18-0.78-0.82-1.41L7,19.58H1.5L9.93,4.6l0.007,0.013V3C9.929,3,9.92,3,9.91,3L9.91,3z"/><path fill="#35495E" d="M19.96,19.59l-0.01-0.01h-0.09c-0.02-0.12-0.059-0.23-0.099-0.34l-0.01-0.03l-5.44-9.7L13.5,8.08l-0.81,1.43l-0.13,0.24l-5.18,9.21c-0.099,0.179-0.17,0.38-0.21,0.6v0.02H7l-0.01,0.01C6.63,20.22,7.09,21,7.81,21h11.33C19.86,21,20.31,20.22,19.96,19.59L19.96,19.59z M8.64,19.58l4.86-8.641l4.86,8.641H8.64L8.64,19.58z"/><path fill="#2E4052" d="M13.5,8.08l-0.81,1.43l-0.13,0.24l-5.18,9.21c-0.099,0.179-0.17,0.38-0.21,0.6v0.02H7l-0.01,0.01C6.63,20.22,7.09,21,7.81,21h5.69v-1.42H8.64l4.86-8.641V8.08L13.5,8.08z"/><path fill="#3B8070" d="M23.85,20.36C23.5,20.97,22.73,21,22.58,21h-3.44c0.719,0,1.17-0.78,0.82-1.41l-0.01-0.01h2.55l-6.94-12.3l-1.25,2.23L13.5,8.08l0.91-1.61c0.36-0.65,0.82-0.79,1.14-0.79c0.699,0,1.11,0.66,1.179,0.79l7.02,12.49C24.12,19.61,24.01,20.08,23.85,20.36L23.85,20.36z"/><path fill="#336F62" d="M15.55,5.68c-0.32,0-0.781,0.141-1.14,0.79L13.5,8.08l0.81,1.43l1.25-2.23l0.032,0.057V5.68C15.578,5.68,15.565,5.68,15.55,5.68L15.55,5.68z"/></svg>